<svg width="37" height="38" viewBox="0 0 37 38" fill="none" xmlns="http://www.w3.org/2000/svg">
<circle cx="18.5" cy="19" r="18.5" fill="#09005B"/>
<path fill-rule="evenodd" clip-rule="evenodd" d="M25.7367 11.8712L22.1018 12.4822L15.0858 20.4329L14.3886 19.7357L13.3536 20.7706L14.1155 21.5325L12.125 23.7881L13.8197 25.4828L16.0753 23.4924L16.7395 24.1565L17.7744 23.1216L17.1749 22.5221L25.1256 15.5061L25.7367 11.8712ZM11.3569 23.0208L14.6167 26.2806L13.5818 27.3155L10.322 24.0557L11.3569 23.0208Z" fill="white"/>
<path fill-rule="evenodd" clip-rule="evenodd" d="M13.2025 15.4252L12.5807 11.801L16.2048 12.4228L18.6277 15.166L16.0739 17.9613L13.2025 15.4252ZM17.5458 19.2613L21.1498 22.4444L20.488 23.1062L21.5229 24.1412L22.2489 23.4152L24.5033 25.4063L23.6458 26.2638L24.6808 27.2988L28.046 23.9335L27.0111 22.8986L26.186 23.7237L24.1948 21.4693L24.8882 20.7759L23.8532 19.741L23.2241 20.3701L19.935 16.6462L17.5458 19.2613Z" fill="white"/>
</svg>
