<svg width="53" height="43" viewBox="0 0 53 43" fill="none" xmlns="http://www.w3.org/2000/svg">
<path d="M23.9854 5.26269L14.5718 22.7194L8.6399 24.3881C9.32766 23.1045 10.1014 22.0776 10.9611 21.3075C11.8208 20.4517 12.8094 20.0239 13.927 20.0239C16.4201 20.0239 18.6553 21.0507 20.6326 23.1045C22.6959 25.0726 23.7275 27.6398 23.7275 30.806C23.7275 34.1433 22.5669 37.0099 20.2457 39.406C18.0105 41.802 15.2165 43 11.8637 43C8.68289 43 5.88889 41.8448 3.48175 39.5343C1.16058 37.1383 0 34.2289 0 30.806C0 29.4368 0.257908 27.8537 0.773723 26.0567C1.37551 24.2597 2.45012 21.9065 3.99757 18.997L14.3139 0L23.9854 5.26269ZM53 5.26269L43.5864 22.7194L37.7835 24.3881C38.3852 23.1045 39.116 22.0776 39.9757 21.3075C40.9213 20.4517 41.91 20.0239 42.9416 20.0239C45.4347 20.0239 47.7129 21.0507 49.7762 23.1045C51.8394 25.0726 52.871 27.6398 52.871 30.806C52.871 34.1433 51.7105 37.0099 49.3893 39.406C47.1541 41.802 44.3601 43 41.0073 43C37.8264 43 35.0324 41.8448 32.6253 39.5343C30.3041 37.1383 29.1436 34.2289 29.1436 30.806C29.1436 29.4368 29.4015 27.8537 29.9173 26.0567C30.4331 24.2597 31.4647 21.9065 33.0122 18.997L43.4574 0L53 5.26269Z" fill="#D3A518"/>
</svg>
