<svg width="70" height="54" viewBox="0 0 70 54" fill="none" xmlns="http://www.w3.org/2000/svg">
<g clip-path="url(#clip0_1_394)">
<path d="M32.9022 39.2109L30.9257 33.2812C30.6718 32.5156 29.9569 32 29.1483 32H23.6249V39.5H32.9491C32.9335 39.4023 32.9335 39.3047 32.9022 39.2109ZM22.3749 32H16.8514C16.0428 32 15.328 32.5156 15.0741 33.2812L13.0975 39.2109C13.0663 39.3047 13.0663 39.4023 13.0507 39.5H22.3749V32ZM12.9999 40.75V50.125C12.9999 51.1602 13.8397 52 14.8749 52H31.1249C32.16 52 32.9999 51.1602 32.9999 50.125V40.75H12.9999Z" fill="#28C24E"/>
</g>
<g clip-path="url(#clip1_1_394)">
<path d="M54.9022 12.2109L52.9257 6.28125C52.6718 5.51562 51.9569 5 51.1483 5H45.6249V12.5H54.9491C54.9335 12.4023 54.9335 12.3047 54.9022 12.2109ZM44.3749 5H38.8514C38.0428 5 37.328 5.51562 37.0741 6.28125L35.0975 12.2109C35.0663 12.3047 35.0663 12.4023 35.0507 12.5H44.3749V5ZM34.9999 13.75V23.125C34.9999 24.1602 35.8397 25 36.8749 25H53.1249C54.16 25 54.9999 24.1602 54.9999 23.125V13.75H34.9999Z" fill="#28C24E"/>
</g>
<path d="M27.4239 8.9248C27.733 8.88799 27.9537 8.60763 27.9169 8.29859L27.3171 3.26253C27.2803 2.95349 26.9999 2.73281 26.6909 2.76961C26.3819 2.80641 26.1612 3.08677 26.198 3.39581L26.7311 7.87231L22.2546 8.40543C21.9456 8.44224 21.7249 8.7226 21.7617 9.03163C21.7985 9.34067 22.0788 9.56136 22.3879 9.52456L27.4239 8.9248ZM10.9755 29.1765C5.35091 24.749 4.38045 16.6002 8.80791 10.9756L7.92233 10.2785C3.10987 16.3922 4.16472 25.2496 10.2784 30.062L10.9755 29.1765ZM8.80791 10.9756C13.2354 5.35103 21.3842 4.38057 27.0088 8.80803L27.7058 7.92244C21.5922 3.10999 12.7348 4.16484 7.92233 10.2785L8.80791 10.9756Z" fill="#28C24E"/>
<path d="M41.0088 43.2583C40.6976 43.2534 40.4413 43.5017 40.4364 43.8129L40.3563 48.8839C40.3514 49.1951 40.5997 49.4513 40.9109 49.4562C41.222 49.4612 41.4783 49.2129 41.4832 48.9017L41.5544 44.3941L46.062 44.4653C46.3732 44.4703 46.6294 44.222 46.6343 43.9108C46.6393 43.5996 46.391 43.3434 46.0798 43.3385L41.0088 43.2583ZM60.0213 25.392C65.0023 30.5329 64.8726 38.7383 59.7318 43.7192L60.516 44.5286C66.1039 39.1146 66.2448 30.1957 60.8307 24.6078L60.0213 25.392ZM59.7318 43.7192C54.5909 48.7002 46.3855 48.5705 41.4046 43.4297L40.5952 44.2139C46.0092 49.8018 54.9281 49.9427 60.516 44.5286L59.7318 43.7192Z" fill="#28C24E"/>
<defs>
<clipPath id="clip0_1_394">
<rect width="20" height="20" fill="white" transform="translate(12.9999 32)"/>
</clipPath>
<clipPath id="clip1_1_394">
<rect width="20" height="20" fill="white" transform="translate(34.9999 5)"/>
</clipPath>
</defs>
</svg>
