<svg width="37" height="37" viewBox="0 0 37 37" fill="none" xmlns="http://www.w3.org/2000/svg">
<circle cx="18.5" cy="18.5" r="18.5" fill="#28C24E"/>
<path fill-rule="evenodd" clip-rule="evenodd" d="M25.7367 11.3709L22.1018 11.982L15.0857 19.9328L14.3887 19.2358L13.3537 20.2708L14.1153 21.0324L12.125 23.2879L13.8197 24.9826L16.0752 22.9923L16.7396 23.6567L17.7746 22.6217L17.1748 22.0219L25.1256 15.0058L25.7367 11.3709ZM11.357 22.5202L14.6168 25.7801L13.5819 26.815L10.3221 23.5552L11.357 22.5202Z" fill="white"/>
<path fill-rule="evenodd" clip-rule="evenodd" d="M13.2028 14.9247L12.5811 11.3005L16.2052 11.9223L18.6283 14.6659L16.0746 17.4611L13.2028 14.9247ZM17.5465 18.7611L21.1504 21.9441L20.4883 22.6062L21.5233 23.6412L22.2495 22.9149L24.5039 24.906L23.6462 25.7638L24.6811 26.7987L28.0464 23.4335L27.0114 22.3985L26.1866 23.2234L24.1954 20.969L24.8885 20.2759L23.8536 19.241L23.2247 19.8699L19.9357 16.146L17.5465 18.7611Z" fill="white"/>
</svg>
