<svg width="53" height="43" viewBox="0 0 53 43" fill="none" xmlns="http://www.w3.org/2000/svg">
<path d="M29.0146 37.7373L38.4282 20.2806L44.3601 18.6119C43.6723 19.8955 42.8986 20.9224 42.0389 21.6925C41.1792 22.5483 40.1906 22.9761 39.073 22.9761C36.5799 22.9761 34.3447 21.9493 32.3674 19.8955C30.3041 17.9274 29.2725 15.3602 29.2725 12.194C29.2725 8.85672 30.4331 5.99005 32.7543 3.59403C34.9895 1.19801 37.7835 0 41.1363 0C44.3171 0 47.1111 1.15523 49.5182 3.46568C51.8394 5.86169 53 8.77114 53 12.194C53 13.5632 52.7421 15.1463 52.2263 16.9433C51.6245 18.7403 50.5499 21.0935 49.0024 24.003L38.6861 43L29.0146 37.7373ZM0 37.7373L9.41362 20.2806L15.2165 18.6119C14.6148 19.8955 13.884 20.9224 13.0243 21.6925C12.0787 22.5483 11.09 22.9761 10.0584 22.9761C7.56529 22.9761 5.28711 21.9493 3.22384 19.8955C1.16058 17.9274 0.128956 15.3602 0.128956 12.194C0.128956 8.85672 1.28954 5.99005 3.61071 3.59403C5.84591 1.19801 8.6399 0 11.9927 0C15.1736 0 17.9676 1.15523 20.3747 3.46568C22.6959 5.86169 23.8564 8.77114 23.8564 12.194C23.8564 13.5632 23.5985 15.1463 23.0827 16.9433C22.5669 18.7403 21.5353 21.0935 19.9878 24.003L9.54258 43L0 37.7373Z" fill="#D3A518"/>
</svg>
