<svg width="147" height="78" viewBox="0 0 147 78" fill="none" xmlns="http://www.w3.org/2000/svg">
<path d="M0.675896 53.932C0.242689 53.5302 0.21722 52.8533 0.61901 52.4201C1.0208 51.9869 1.6977 51.9615 2.1309 52.3633L0.675896 53.932ZM94.0623 67.6656L94.5151 68.6349L94.0623 67.6656ZM141.995 0.853517L146.465 12.3697L134.257 10.4828L141.995 0.853517ZM2.1309 52.3633C28.6665 76.9744 60.8183 82.012 93.6096 66.6963L94.5151 68.6349C60.9349 84.319 27.8498 79.1352 0.675896 53.932L2.1309 52.3633ZM93.6096 66.6963C119.426 54.6382 134.175 36.5029 139.475 10.1592L141.573 10.5812C136.129 37.6394 120.901 56.3108 94.5151 68.6349L93.6096 66.6963Z" fill="url(#paint0_linear_1_371)"/>
<defs>
<linearGradient id="paint0_linear_1_371" x1="143.547" y1="11.378" x2="60.899" y2="58.3229" gradientUnits="userSpaceOnUse">
<stop stop-color="#28C24E"/>
<stop offset="1" stop-color="#0112AC"/>
</linearGradient>
</defs>
</svg>
